<?xml version="1.0" standalone="no"?>
<svg version="1.1" id="Layer_1" xmlns="http://www.w3.org/2000/svg" xmlns:xlink="http://www.w3.org/1999/xlink" x="0px" y="0px" width="595.279px" height="595.281px" viewBox="0 0 595.279 595.281" enable-background="new 0 0 595.279 595.281" xml:space="preserve">
<path id="color_x5F_2" fill="#FBC02D" d="M214.142,443.148c0.647-0.29,1.246-0.648,1.812-1.045c0,10.194,0,20.391,0,30.586H86.87
	c0-3.919,0-7.84,0-11.759c1.013,0.146,2.354,0.382,4.051,0.759c1.829,0.405,5.474,0.151,9.157-0.293
	c10.267-0.592,20.577-3.49,30.593-6.142l12.857-2.886c11.965-2.327,24.214-4.221,35.139-9.443c0.308-0.056,0.615-0.104,0.923-0.14
	c1.823,0.271,7.088,1.104,11.953,2.378c7.935,3.016,15.646,6.743,22.393-1.662C214.041,443.372,214.101,443.255,214.142,443.148z
	 M145.034,234.091c0.024-0.012,0.041-0.021,0.068-0.035c3.853-1.818,7.731-3.245,11.642-4.37c2.299-1.03,4.414-1.84,5.678-1.997
	c0.94-0.118,2.742-0.235,4.94-0.347c8.032-1.293,16.231-1.639,24.667-1.688c-0.019-0.026-0.042-0.048-0.057-0.078
	c-2.055-4.068-3.538-9.737-5.614-14.984c-1.037-2.294-2.133-4.564-3.231-6.578c-1.766-2.781-3.96-5.054-6.87-6.321
	c-9.456-4.118-22.863-1.25-32.488,1.432c-9.341,2.604-18.33,7.441-23.775,15.745c-5.047,7.696-6.89,16.54-7.101,25.612
	c1.471-0.313,4.463-0.945,7.897-1.654C128.804,236.672,136.643,233.891,145.034,234.091z M150.769,232.593
	c-0.932,0.369-1.862,0.762-2.792,1.178c0.102,0.045,0.206,0.085,0.307,0.129C149.005,233.515,149.849,233.07,150.769,232.593z
	 M66.921,333.689c-0.327,0.436-0.66,1.213-0.994,2.229c0.87-1.527,1.865-3.006,3.009-4.428
	C68.04,332.369,67.346,333.122,66.921,333.689z M233.303,376.877c-3.529,4.556-8.539,10.194-14.718,8.315
	c-0.017-0.005-0.038-0.006-0.056-0.011c0.099-7.765-0.634-15.581-1.575-23.215c-0.643-5.221-1.495-10.423-2.606-15.563
	c-0.491-2.271-0.876-5.177-2.251-7.129c-0.602-0.854-3.403,0.14-2.684,1.162c1.417,2.014,1.725,5.299,2.229,7.632
	c1.048,4.845,1.78,9.761,2.415,14.675c1.499,11.599,2.386,23.662,0.58,35.271c-3.342,3.495-6.675,6.997-9.981,10.524
	c-0.246,0.262-0.491,0.523-0.736,0.787c-0.185-0.128-0.411-0.279-0.678-0.446c-0.323-0.203-0.702-0.424-1.113-0.643
	c-1.548-0.821-3.593-1.587-5.208-1.05c-0.851,0.284-2.025,0.935-3.268,1.712c-0.594,0.373-1.201,0.772-1.8,1.182
	c-2.568,1.752-4.932,3.606-4.932,3.606l-3.718,6.508l-0.282,0.492l-1.696-0.108l-29.304-1.892c0,0-28-2-34-1.5
	c-2.168,0.182-4.135,0.165-5.77,0.071c-1.344-0.077-2.456-0.205-3.265-0.321c-0.93-0.134-1.465-0.25-1.465-0.25l-0.834-18.352
	l-0.082-1.793l-0.003-0.063l-0.082-1.793l-1.202,2.403l-0.798,1.597c0,0-10.5,0.5-15-1s-20-8.5-20-8.5l-7.226-0.516l-1.814-0.13
	l-0.83-0.06l-4.13-0.295c0,0,0.015-0.05,0.043-0.142c0.054-0.174,0.156-0.51,0.293-0.962c0.702,0.078,2.013-0.201,2.361-0.683
	c0.028-0.038,0.054-0.078,0.068-0.12c6.44-18.467,1.337-39.999,14.331-56.092c6.792-8.411,17.607-13.272,26.898-18.309
	c7.101-3.849,13.953-8.054,19.697-13.707l1.037-0.566c9.798,5.688,19.398,11.713,29.5,16.861c-0.063,0.648,2.373,0.313,2.815-0.396
	c0.279-0.173,0.428-0.325,0.321-0.379c-0.056-0.028-0.11-0.059-0.166-0.087c0.607-2.171,1.375-5.292,2.646-7.865
	c1.847-1.996,3.579-3.394,4.488-4.075c3.985,2.526,6.874,5.994,7.884,11.575c0.026,0.146,0.197,0.224,0.438,0.251
	c0.522,0.559,2.31,0.317,2.721-0.502c1.189-2.374,2.444-4.731,3.973-6.907c0.82-1.167,1.748-2.303,2.903-3.15
	c1.287-0.942,2.192,1.016,2.63,1.976c0.2,0.438,0.696,0.605,1.226,0.593c0.129,0.059,0.3,0.091,0.501,0.093
	c10.308,11.17,30.002,8.493,39.091,22.154c2.823,4.243,4.844,9.067,6.419,14.032c1.918,8.604,3.881,18.059,5.3,25.033
	C233.2,370.169,233.373,373.534,233.303,376.877z M110.87,356.8c-0.002-0.549-2.901-0.104-2.897,0.776
	c0.052,12.788,1.084,25.618-0.303,38.355c0.284-0.167,0.566-0.344,0.846-0.531c0.525-0.354,1.528-0.373,2.037-0.131
	C111.928,382.492,110.922,369.631,110.87,356.8z M226.277,385.714c0.118-0.126,0.235-0.252,0.353-0.378
	c-0.341,0.183-0.689,0.342-1.039,0.499L226.277,385.714z M218.488,387.088l0.399-0.07c-0.131-0.012-0.263-0.027-0.395-0.044
	C218.491,387.012,218.489,387.05,218.488,387.088z"></path>
<path id="color_x5F_1" d="M107.669,395.933c1.387-12.738,0.355-25.567,0.303-38.355c-0.004-0.88,2.896-1.325,2.897-0.776
	c0.053,12.831,1.059,25.69-0.317,38.471c-0.509-0.242-1.512-0.225-2.037,0.131C108.236,395.589,107.954,395.766,107.669,395.933z
	 M196.921,407.189c-0.851,0.283-2.025,0.934-3.268,1.712c2.467-1.284,5.259-1.487,8.476-0.663
	C200.58,407.417,198.536,406.651,196.921,407.189z M309.528,389.066c0.699,0.909,1.418,1.803,2.156,2.681
	c0.703,0.833,3.481-0.225,2.682-1.175c-0.74-0.877-1.459-1.771-2.157-2.682C311.549,387.033,308.759,388.063,309.528,389.066z
	 M398.215,300.147c17.8,0.933,34.079,12.263,37.169,30.646c2.213,13.165-2.777,26.797-14.156,34.246
	c-13.832,9.055-34.66,10.428-49.506,3.129c-15.414-7.578-22.893-26.344-17.013-42.635c6.409-17.757,25.62-23.972,42.823-25.565
	C398.144,299.911,398.302,299.999,398.215,300.147z M395.354,301.237c-0.127-0.004-0.212-0.021-0.277-0.039
	c-8.621,0.886-17.508,2.8-24.786,7.718c-14.706,9.938-19.163,30.879-9.604,46.118c11.364,18.122,41.241,21.805,58.336,9.965
	c12.185-8.44,16.933-24.187,12.285-38.17C426.057,311.027,411.719,301.746,395.354,301.237z M186.763,253.111
	c-0.808-0.699-3.522,0.433-2.685,1.156c2.012,1.742,4.44,5.427,0.759,6.784c-0.388,0.144-1.206,0.728-0.759,1.216
	c0.461,0.505,1.393,0.256,1.926,0.06c1.805-0.666,3.591-1.884,3.708-3.972C189.83,256.278,188.228,254.378,186.763,253.111z
	 M188.87,247.8c0-1.167,0-2.333,0-3.5c0-0.518-2.897-0.086-2.897,0.776c0,1.167,0,2.333,0,3.5
	C185.972,249.094,188.87,248.663,188.87,247.8z M158.972,246.577c0,1.167,0,2.333,0,3.5c0,0.518,2.897,0.086,2.897-0.776
	c0-1.167,0-2.333,0-3.5C161.87,245.284,158.972,245.714,158.972,246.577z M173.148,264.669c-2.527,3.26-3.415,12.152-9.299,11.204
	c-5.968-0.962-4.945-8.052-4.901-12.594c0.01-1.024,1.572-1.496,2.417-1.063c3.898-1.751,8.211-1.549,11.663,1.098
	C173.484,263.665,173.484,264.236,173.148,264.669z M170.106,264.586c-2.313-1.456-4.953-1.651-7.524-0.471
	c-0.25,0.115-0.5,0.159-0.737,0.159c-0.168,3.182-0.529,9.707,2.989,9.36c1.726-0.17,2.703-3.425,3.248-4.746
	C168.684,267.428,169.267,265.93,170.106,264.586z M131.201,257.368c-0.473,0.103-1.397,0.58-1.229,1.209
	c0.177,0.66,1.195,0.536,1.669,0.433c1.266-0.274,2.294,0.84,2.941,1.772c0.625,0.9,3.423-0.111,2.678-1.187
	C135.812,257.51,133.641,256.837,131.201,257.368z M288.605,381.529c-4.049-0.129-6.321,1.413-8.677,4.599
	c-4.522,6.115-11.812-0.718-17.778-0.563c-10.207,0.267-15.218,7.719-14.178,17.346c0.049,0.458,0.478,0.651,0.99,0.646
	c-4.592,6.847-8.342,14.188-12.27,21.427c-0.81,1.49,2.136,1.62,2.792,0.411c3.986-7.347,7.764-14.817,12.498-21.724
	c0.68-0.992-0.191-1.594-1.117-1.585c-0.513-4.813,0.039-9.652,4.245-12.677c5.09-3.662,10.643-1.119,15.61,0.962
	c2.762,1.157,5.906,0.865,8.504-0.515c3.242-1.723,3.94-6.479,8.347-6.341C288.893,383.558,290.568,381.59,288.605,381.529z
	 M166.259,240.178c0.421-0.543-0.357-0.741-0.756-0.741c-2.5,0-5,0-7.5,0c-0.64,0-1.508,0.229-1.921,0.762
	c-0.421,0.543,0.357,0.742,0.756,0.742c2.5,0,5,0,7.5,0C164.978,240.941,165.847,240.71,166.259,240.178z M181.338,239.441
	c2.5,0,5,0,7.5,0c0.64,0,1.508-0.23,1.921-0.763c0.421-0.543-0.357-0.742-0.756-0.742c-2.5,0-5,0-7.5,0
	c-0.64,0-1.508,0.23-1.921,0.763C180.161,239.243,180.94,239.441,181.338,239.441z M513.245,311.136c0,16.583,0,33.167,0,49.75
	c0,0.445-0.62,0.815-1.287,0.966c-0.327,0.173-0.682,0.293-0.975,0.293c-8.44,0-16.881,0-25.322,0
	c-2.256,6.382-5.709,12.295-9.191,18.076c0.035,0.022,0.072,0.042,0.102,0.07c6.02,5.756,12.041,11.513,18.061,17.271
	c0.773-0.001,1.376,0.29,0.713,0.982c-11.46,11.986-22.921,23.972-34.382,35.957c-0.278,0.291-0.927,0.466-1.509,0.486
	c-0.536,0.119-1.076,0.104-1.352-0.156c-7.244-6.827-15.283-12.747-22.527-19.574c-0.156-0.146-0.172-0.309-0.096-0.467
	c-5.226,2.11-10.572,3.822-16.054,5.132c-0.021,0.006-0.036,0.003-0.056,0.008c0,8.652,0,17.307,0,25.96
	c1.246,0.227-0.504,1.631-1.512,1.631c-16.584,0-33.168,0-49.75,0c-0.604,0-0.832-0.159-0.828-0.377
	c-0.188-0.11-0.311-0.279-0.311-0.527c0-8.5,0-17,0-25.5c0-0.05,0.012-0.099,0.027-0.146c-6.346-1.17-12.557-2.787-18.648-4.899
	c-6.715,6.265-13.799,12.121-20.464,18.439c-0.241,0.229-0.742,0.378-1.242,0.43c-0.62,0.189-1.312,0.209-1.618-0.113
	c-11.461-11.985-22.922-23.971-34.383-35.957c-0.508-0.531,0.497-1.171,1.451-1.343c0.24-0.229,0.479-0.459,0.719-0.688
	c-0.409,0.029-0.821,0.041-1.238,0.029c-0.376-0.011-0.618-0.095-0.756-0.22c-1.73,0.781-3.596,1.273-5.521,1.411
	c-10.344,17.316-13.756,38.484-31.491,50.622c-13.061,8.938-25.479,0.251-34.918-9.36c0,11.085,0,22.171,0,33.257
	c0,1.293-2.935,1.74-2.935,0.226c0-0.038,0-0.075,0-0.112c0-10.196,0-20.391,0-30.586c-0.565,0.396-1.165,0.755-1.812,1.045
	c-0.041,0.108-0.101,0.224-0.206,0.354c-6.747,8.405-14.458,4.679-22.393,1.662c-3.959-1.505-7.974-2.824-11.953-2.378
	c-0.308,0.035-0.616,0.084-0.923,0.141c-10.925,5.223-23.174,7.115-35.139,9.442c-4.044,0.786-8.057,1.621-11.973,2.652
	c-0.294,0.077-0.589,0.156-0.884,0.234c-10.016,2.65-20.326,5.549-30.593,6.141c-4.42,0.255-8.832,0.083-13.208-0.724
	c0,0.086,0,0.173,0,0.259c0,3.919,0,7.839,0,11.758c0,0.038,0,0.075,0,0.112c0,1.083-2.897,1.612-2.897,0.775
	c0-4.222,0-8.443,0-12.667c0-0.295,0.219-0.547,0.532-0.744c-2.555-0.609-5.097-1.441-7.619-2.553
	c-25.67-11.306-17.679-46.762-17.58-68.703c0-0.158,0.095-0.3,0.246-0.427l0.83,0.059l1.814,0.131l7.226,0.516c0,0,15.5,7,20,8.5
	s15,1,15,1l0.798-1.597c0.357-0.133,0.711-0.282,1.063-0.442c0.066-0.061,0.14-0.116,0.221-0.167l0.003,0.062l0.082,1.794
	l0.834,18.352c0,0,0.535,0.117,1.465,0.25c0,0.043,0,0.086,0,0.129c0,0.315-0.187,0.581-0.466,0.778
	c1.241-0.22,2.484-0.419,3.731-0.586c1.635,0.093,3.602,0.108,5.77-0.071c6-0.5,34,1.5,34,1.5l29.304,1.891l1.696,0.109l0.282-0.493
	l3.718-6.507c0,0,2.363-1.854,4.932-3.607c-0.879,0.696-1.719,1.541-2.518,2.556c-1.911,2.425-3.584,5.017-5.313,7.572
	c0.419,0.006,0.84,0.017,1.259,0.02c1.961,0.012,0.215,1.929-1.053,1.921c-30.857-0.185-64.171-10.72-93.526,3.124
	c-1.405,0.662-3.034-0.649-1.228-1.502c5.618-2.648,11.36-4.439,17.189-5.604c-0.407-0.113-0.707-0.386-0.707-0.858
	c0-6.24,0-12.479,0-18.721c-14.063,5.438-29.313-6.273-43.765-9.666c-0.271,20.092-7.295,51.279,12.271,64.722
	c16.874,11.593,38.776,5.685,56.826,0.378c14.897-4.38,31.182-4.854,45.36-11.435c-0.206-0.429,0.082-1.012,1.051-1.231
	c0.702-0.159,1.395-0.267,2.081-0.338c0.042-0.023,0.086-0.042,0.129-0.066c0.557-0.306,2.257-0.409,2.239-0.02
	c3.42,0.101,6.705,1.127,10.055,2.418c6.752,2.603,13.815,6.444,19.371-0.477c0.107-0.134,0.267-0.24,0.451-0.326
	c0.047-0.236,0.28-0.491,0.8-0.716c1.35-0.586,2.388-1.53,3.13-2.674c0-0.842,0-1.684,0-2.525c0-0.589,0.611-1,1.275-1.132
	c0.031-0.273,0.063-0.547,0.07-0.824c0.019-0.722,1.322-1.206,2.178-1.058c0.946-2.037,1.512-4.211,2.038-6.39
	c-0.498,0.13-1.099,0.19-1.442-0.152c-0.453-0.452,0.458-1.001,0.785-1.119c0.402-0.146,0.761-0.323,1.091-0.521
	c0.007-0.027,0.013-0.055,0.02-0.082c0.101-0.407,0.61-0.719,1.176-0.883c1.227-1.333,1.642-3.188,1.619-5.136
	c-3.765,1.709-8.33,1.743-12.299,0.705c-3.724-0.975-9.679-3.547-10.245-7.764c-0.613,0.069-1.07,0.014-0.78-0.301
	c0.25-0.271,0.506-0.539,0.757-0.81c0.051-0.565,0.192-1.155,0.45-1.773c0.085-0.205,0.31-0.378,0.595-0.515
	c0.267,0.167,0.493,0.317,0.678,0.445c0.245-0.263,0.49-0.524,0.736-0.786c3.306-3.527,6.64-7.029,9.981-10.524
	c1.806-11.61,0.919-23.673-0.58-35.272c-0.635-4.913-1.367-9.829-2.415-14.675c-0.504-2.333-0.812-5.619-2.229-7.631
	c-0.72-1.022,2.082-2.018,2.684-1.163c1.375,1.953,1.76,4.859,2.251,7.129c1.111,5.143,1.964,10.345,2.606,15.564
	c0.94,7.635,1.673,15.45,1.575,23.215c0.018,0.004,0.04,0.005,0.056,0.01c6.18,1.879,11.189-3.759,14.718-8.314
	c0.07-3.344-0.103-6.708-0.46-10.063c-0.487-4.563-1.296-9.104-2.289-13.526c-0.849-3.783-1.799-7.687-3.012-11.508
	c-1.576-4.964-3.596-9.788-6.419-14.031c-9.089-13.661-28.783-10.984-39.091-22.154c-0.201-0.002-0.372-0.034-0.501-0.093
	c-0.53,0.013-1.026-0.155-1.226-0.593c-0.438-0.959-1.343-2.917-2.63-1.976c-1.156,0.847-2.083,1.983-2.903,3.15
	c-1.529,2.176-2.784,4.533-3.973,6.907c-0.411,0.819-2.199,1.061-2.721,0.502c-0.241-0.028-0.412-0.105-0.438-0.251
	c-1.01-5.581-3.898-9.049-7.884-11.575c-0.14-0.088-0.282-0.175-0.424-0.263c-0.108,0.064-0.23,0.131-0.386,0.199
	c-1.58,0.701-2.759,2.275-3.678,4.138c-1.271,2.574-2.039,5.694-2.646,7.865c0.056,0.028,0.11,0.059,0.166,0.086
	c0.107,0.055-0.042,0.207-0.321,0.38c-0.443,0.709-2.879,1.044-2.815,0.396c-10.101-5.149-19.702-11.173-29.5-16.861
	c-0.106-0.062-0.213-0.124-0.319-0.186c-0.242,0.248-0.472,0.51-0.718,0.751c-5.744,5.653-12.596,9.857-19.697,13.707
	c-9.291,5.036-20.106,9.896-26.898,18.309c-12.993,16.092-7.891,37.625-14.331,56.091c-0.015,0.042-0.04,0.082-0.068,0.121
	c-0.348,0.481-1.66,0.761-2.361,0.683c-0.137,0.452-0.24,0.788-0.293,0.962c-0.2-0.002-0.401-0.016-0.601-0.013
	c-1.655,0.024-0.509-1.188,0.556-1.572c5.472-16.056,1.995-35.606,10.508-50.544c0.87-1.527,1.865-3.006,3.009-4.429
	c0.307-0.381,0.615-0.763,0.944-1.136c13.457-15.282,35.297-19.203,48.889-34.417c0.042-0.048,0.108-0.093,0.182-0.137
	c0-0.006-0.002-0.01-0.002-0.017c-0.019-2.763-0.482-5.819,0.233-8.53c0.658-2.492,1.925-4.524,3.515-6.533
	c0.535-0.676,1.775-0.715,2.381-0.306c0.593-0.449,1.467-0.858,2.713-1.206c0.651-0.183,1.083-0.149,1.279-0.017
	c0.288-2.523,0.37-5.068,0.393-7.625c-0.311,0.098-0.625,0.134-0.888,0.068c-10.75-2.714-15.888-17.32-16.123-27.646
	c-0.089-0.522-0.168-1.001-0.236-1.423c-0.151,0.024-0.302,0.056-0.453,0.078c-0.444,0.067-0.742,0.015-0.932-0.102
	c-0.485-0.031-0.866-0.231-0.861-0.677c0.11-11.114,2.707-21.951,10.022-30.57c6.206-7.313,15.471-11.82,24.681-13.979
	c9.717-2.277,23.166-5.707,32.783-1.519c11.038,4.807,12.567,19.408,17.413,29.003c0.153,0.302-0.105,0.611-0.52,0.845
	c0.008,0,0.016,0,0.023,0c0.003,0,0.004,0,0.007,0c0.303-0.064,0.57-0.083,0.728-0.029c2.599,0.896,13.739,3.789,13.322,8.011
	c-0.335,3.395-8.293,2.25-10.05,1.857c-0.646-0.144-1.296-0.299-1.949-0.459c0.708,13.63,7.023,33.171-5.476,42.736
	c-4.689,3.588-10.319,5.847-14.805,9.701c-0.774,0.666-1.477,1.356-2.112,2.073c5.512,3.316,9.104,7.563,10.045,14.048
	c5.747,6.523,15.667,8.162,23.47,11.097c7.419,2.79,13.437,6.587,17.355,13.669c7.498,13.549,11.453,30.868,11.369,46.551
	c0.842-0.923,1.694-1.836,2.53-2.764c0.952-1.058,5.019-4.564,6.563-6.961c-0.344,0.011-0.625-0.062-0.732-0.265
	c-4.047-7.647-6.885-16.814-1.599-24.631c4.681-6.922,11.92-11.685,18.597-16.492c0.165-0.119,0.556-0.234,0.983-0.312
	c-0.01-0.715,2.209-1.477,2.815-0.848c1.663,1.729,2.95,3.693,4.16,5.716c0-5.284,0-10.567,0-15.853
	c0-0.919,2.629-1.521,2.875-0.513c7.932,0,15.863,0,23.795,0c0.001-0.063,0.011-0.132,0.035-0.207
	c2.097-6.693,5.052-12.949,8.887-18.824c0.177-0.271,0.531-0.469,0.931-0.589c-5.154-4.929-10.31-9.858-15.464-14.788
	c-0.168-0.16-0.171-0.337-0.073-0.509c-0.082-0.157-0.031-0.373,0.244-0.66c11.461-11.984,22.922-23.971,34.383-35.957
	c0.639-0.668,3.233-0.733,2.463,0.327c6.518,6.3,12.572,13.054,19.096,19.347c0.02,0.02,0.029,0.04,0.044,0.06
	c0.017-0.007,0.024-0.013,0.042-0.02c6.408-2.714,12.979-4.905,19.702-6.66c-0.34-0.083-0.583-0.28-0.583-0.632c0-8.5,0-17,0-25.5
	c0-0.443,0.615-0.813,1.277-0.964c0.328-0.175,0.687-0.297,0.98-0.297c16.583,0,33.167,0,49.75,0c1.123,0,0.949,0.546,0.391,1.014
	c0,8.169,0,16.337,0,24.506c0.451-0.189,0.939-0.293,1.254-0.207c7.533,2.063,14.723,4.933,21.604,8.629
	c1.208,0.649-1.458,1.867-2.303,1.413c-6.662-3.579-13.602-6.391-20.893-8.402c-0.763,0.594-2.563,0.777-2.563-0.191
	c0-8.365,0-16.73,0-25.097c-15.534,0-31.066,0-46.602,0c0,8.246,0,16.493,0,24.739c0,0.158-0.082,0.305-0.213,0.438
	c1.555-0.341,1.726,0.386,0.082,0.791c-6.931,1.708-13.673,3.907-20.246,6.69c-0.31,0.13-1.131,0.245-1.682,0.241
	c-0.416,0.618-2.163,1.14-2.736,0.587c-6.24-6.021-12.064-12.456-18.264-18.519c-10.779,11.271-21.559,22.545-32.337,33.817
	c6.099,5.832,12.198,11.664,18.297,17.496c0.792,0.757-1.94,1.855-2.688,1.141c-0.498-0.476-0.994-0.95-1.492-1.426
	c-3.559,5.55-6.391,11.446-8.364,17.75c-0.126,0.403-0.558,0.707-1.05,0.885c-0.075,0.493-1.205,1.242-1.942,1.242
	c-7.913,0-15.827,0-23.74,0c0,6.517,0,13.032,0,19.548c0.092,0.146,0.18,0.292,0.274,0.438c0.204,0.313,0.046,0.62-0.274,0.869
	c0,8.998,0,17.995,0,26.992c1.055,0.023,2.2,0.078,3.184-0.19c0.175-0.048,0.217-0.127,0.757-0.344
	c1.853-0.745,4.101-0.591,6.046-0.601c0.026,0,0.044,0.003,0.069,0.005c0.522-0.557,1.055-1.103,1.571-1.663
	c1.561-1.696,3.109-3.404,4.637-5.128c0.429-0.483,2.415-0.778,2.727-0.427c0.251,0.001,0.471,0.05,0.619,0.164
	c3.112,2.407,5.578,5.548,8.333,8.333c0.278,0.282,0.003,0.621-0.467,0.884c0.307,0.203,0.39,0.542-0.022,1.023
	c-0.054,0.063-0.107,0.128-0.16,0.191c1.639,5.107,3.719,10,6.269,14.678c2.452-0.302,4.979-0.038,5.75,1.775
	c0.56,0.089,0.866,0.374,0.299,0.916c-0.028,0.027-0.056,0.055-0.084,0.081c0.043,0.604-0.035,1.31-0.299,2.16
	c-1.343,4.321-4.691,8.667-8.813,10.65c-0.634,0.305-3.363,0.538-1.645-0.289c3.181-1.53,5.861-5.289,7.138-8.5
	c0.113-0.285,0.207-0.563,0.29-0.837c-0.852,0.813-1.701,1.626-2.552,2.439c-0.017,0.031-0.03,0.065-0.046,0.097
	c-2.02,3.895-5.408,7.46-9.533,9.063c-0.854,0.817-1.709,1.634-2.564,2.452c10.958,11.46,21.917,22.92,32.875,34.381
	c6.69-6.234,13.746-12.07,20.383-18.364c0.625-0.593,2.979-0.662,2.58,0.169c6.613,2.349,13.363,4.11,20.273,5.348
	c0.346,0.062,0.121,0.289-0.309,0.526c0.041,0.08,0.07,0.169,0.07,0.276c0,8.365,0,16.73,0,25.096c15.533,0,31.066,0,46.601,0
	c0-8.828,0-17.658,0-26.488c0-0.771,1.848-1.318,2.592-0.882c5.302-1.269,10.468-2.908,15.519-4.963
	c0.945-0.384,2.11,0.012,1.947,0.551c0.643-0.224,1.395-0.277,1.737,0.046c6.918,6.521,14.555,12.222,21.539,18.668
	c10.792-11.286,21.583-22.572,32.375-33.858c-6.099-5.832-12.198-11.664-18.297-17.496c-0.113-0.107-0.148-0.223-0.134-0.339
	c-0.189-0.022-0.297-0.07-0.254-0.143c3.863-6.412,7.727-12.975,9.955-20.163c0.221-0.714,3.019-1.057,2.854-0.524
	c-0.029,0.095-0.064,0.186-0.096,0.277c0.14-0.037,0.274-0.062,0.397-0.062c7.913,0,15.827,0,23.74,0c0-15.944,0-31.89,0-47.835
	c-8.287,0-16.574,0-24.861,0c-1.959,0,0.024-1.665,1.121-1.665c8.011,0,16.021,0,24.029,0
	C511.368,310.359,513.245,310.148,513.245,311.136z M306.606,379.395c0.516,0.916,1.051,1.822,1.603,2.722
	c0.239-0.23,0.479-0.46,0.721-0.69C308.677,380.324,307.919,379.575,306.606,379.395z M192.468,226.733
	c-14.517,0.003-28.267,0.549-41.699,5.86c-0.932,0.369-1.862,0.762-2.792,1.178c0.102,0.045,0.206,0.085,0.307,0.129
	c7.934,3.449,17.429,3,25.599,0.591c5.754-1.697,10.389-3.063,16.473-2.346c1.558,0.184,3.096,0.495,4.626,0.845
	c0.701-0.145,1.382-0.071,1.388,0.311c0,0.003,0,0.007,0,0.011c0.695,0.166,1.389,0.336,2.083,0.499
	c0.9,0.214,7.939,1.819,6.989-0.121c-1.941-3.965-9.121-5.691-12.709-6.929c-0.042-0.014-0.069-0.031-0.096-0.049
	C192.571,226.723,192.511,226.733,192.468,226.733z M145.034,234.091c0.024-0.012,0.041-0.021,0.068-0.035
	c3.853-1.818,7.731-3.245,11.642-4.37c3.51-1.011,7.048-1.769,10.618-2.344c8.032-1.293,16.231-1.639,24.667-1.688
	c-0.019-0.026-0.042-0.048-0.057-0.078c-2.055-4.068-3.538-9.737-5.614-14.984c-0.924-2.337-1.968-4.588-3.231-6.578
	c-1.766-2.781-3.96-5.054-6.87-6.321c-9.456-4.118-22.863-1.25-32.488,1.432c-9.341,2.604-18.33,7.441-23.775,15.745
	c-5.047,7.696-6.89,16.54-7.101,25.612c0,0.006,0,0.012,0,0.017l5.999-1.176c0.634-0.16,1.267-0.325,1.898-0.495
	C128.804,236.672,136.643,233.891,145.034,234.091z M124.35,256.169c1.122-2.08,2.852-3.829,4.82-4.879
	C127.046,252.168,125.186,253.88,124.35,256.169z M128.293,283.678c0.31-1.316,0.542-2.642,0.709-3.973
	c-0.18,0.165-0.484,0.333-0.953,0.464C125.927,280.762,126.671,282.195,128.293,283.678z M158.091,300.699
	c-1.811-0.974-3.794-1.811-5.906-2.588c-5.165-1.903-10.139-4.104-15.088-6.501c-2.579-1.25-11.57-5.375-12.833-8.773
	c-1.289,1.813-2.275,3.75-2.41,6.054c-0.13,2.232,0.024,4.471,0.04,6.704c0.001,0.146-0.037,0.277-0.094,0.399
	c9.48,5.469,18.753,11.288,28.445,16.377c1.341-4.542,3.202-9.625,7.653-11.598C157.959,300.744,158.025,300.72,158.091,300.699z
	 M170.688,290.223c-0.097-0.056-0.19-0.112-0.289-0.169c-0.384-0.216,0.527-0.788,1.437-1.042c3.608-3.575,8.003-5.968,12.329-8.595
	c6.404-3.888,10.527-8.375,11.082-16.189c0.712-10.035-1.598-19.923-1.769-29.929c-3.428-0.829-6.923-1.533-10.384-1.208
	c-5.13,0.481-9.988,2.928-15.107,3.704c-6.579,0.999-13.3,1.171-19.614-0.835c0.273,7.283-2.612,13.371-8.149,18.084
	c-0.168,0.144-0.582,0.274-1.035,0.369c-0.559,0.637-2.142,0.997-2.607,0.365c-1.073-1.459-2.832-3.509-4.947-2.826
	c-1.692,0.547-3.13,1.925-4.023,3.438c-1.342,2.276-2.299,5.04-1.259,7.633c0.843,2.1,2.744,4.259,4.96,5.544
	c0.572-0.067,1.058-0.004,1.058,0.233c0,0.1-0.001,0.197-0.001,0.296c2.341,1.006,4.892,0.951,6.875-1.203
	c0.72-0.782,3.542-0.698,2.354,0.592c-2.367,2.57-5.894,3.332-9.243,2.724c-0.049,4.467-0.296,8.899-1.5,13.243
	c-0.07,0.253-0.412,0.466-0.836,0.616c1.977,1.438,4.208,2.686,4.71,2.954c3.46,1.847,7.024,3.463,10.555,5.164
	c7.156,3.447,15.608,5.149,20.794,10.425C166.193,298.755,167.42,294.012,170.688,290.223z M180.411,301.052
	c-1.372-4.11-4.071-7.156-7.821-9.658c-3.248,4.688-4.055,10.276-3.387,16.406c0.009,0.085-0.01,0.165-0.04,0.244
	c0.206,0.443,0.391,0.909,0.563,1.389c1.441-2.69,3.123-5.35,5.408-7.223C176.993,300.688,178.851,300.35,180.411,301.052z
	 M299.946,380.203c-0.078,0.01-0.144,0.011-0.213,0.014c0.387,1.218,0.5,2.558,0.398,3.682c-0.402,4.483-2.751,8.289-6.079,10.831
	c0.452-0.079,0.898-0.2,1.337-0.354c2.594-2.479,5.188-4.96,7.781-7.44C304.934,383.397,305.011,379.539,299.946,380.203z
	 M269.595,362.243c0-8.459,0-16.917,0-25.376c-1.041,0.976-2.086,1.948-3.13,2.923c-1.46,1.364-2.924,2.727-4.34,4.138
	c-0.723,0.721-1.666,1.497-2.2,2.41c0.321,5.79,2.235,11.551,3.834,17.087c0.284-0.047,0.572-0.025,0.824,0.099
	c1.393,0.685,4.749,0.456,6.513,0.56c1.678,0.099,3.36,0.199,5.041,0.227c0.53,0.01,1.062,0.021,1.592,0.007
	c0.192-0.005,0.385-0.012,0.577-0.023c0.021-0.003,0.033-0.001,0.053-0.004c0.133-0.04,0.271-0.07,0.408-0.088
	c0.103-0.088,0.207-0.174,0.305-0.268c0.498-0.47,0.985-0.951,1.463-1.439c0.152-0.156,0.298-0.319,0.45-0.477
	c-1.125-0.018-2.382-0.105-3.449,0.187c-0.175,0.048-0.217,0.127-0.757,0.344c-1.853,0.745-4.101,0.591-6.046,0.6
	c-0.605,0.003-0.833-0.154-0.827-0.375C269.717,362.661,269.595,362.492,269.595,362.243z M279.224,364.184
	c0.1,0.008,0.196,0.023,0.29,0.048c0.195-0.047,0.369-0.069,0.49-0.055C279.704,364.139,279.452,364.155,279.224,364.184z
	 M269.595,335.177c0-0.016,0-0.029,0-0.046c-0.019-0.004-0.035-0.01-0.053-0.015C269.559,335.137,269.578,335.158,269.595,335.177z
	 M217.956,394.541c1.948-2.043,3.892-4.091,5.822-6.15c0.834-0.891,1.665-1.784,2.499-2.676c0.118-0.126,0.235-0.252,0.353-0.378
	c-0.341,0.182-0.689,0.342-1.039,0.499c-2.084,0.938-4.323,1.404-6.705,1.183c-0.131-0.012-0.263-0.027-0.395-0.044
	c-0.001,0.038-0.003,0.076-0.004,0.114C218.411,389.583,218.239,392.069,217.956,394.541z M297.056,385.809
	c0.315-2.009,0.372-4.771-1.025-6.472c-0.616-0.75-1.007-1.486-1.666-0.499c-0.725,1.087-1.134,2.243-1.501,3.485
	c-0.272,0.918-3.167,1.337-2.889,0.396c0.835-2.823,2.648-6.471,6.233-5.974c1.314,0.183,2.248,0.972,2.88,2.021
	c0.265-0.293,0.66-0.531,1.14-0.595c0.737-0.097,1.541-0.146,2.336-0.109c-1.957-3.729-3.63-7.588-5.018-11.583
	c-3.898,4.9-7.969,10.347-13.608,12.907c-7.399,3.359-13.934,0.085-21.317-1.074c-1.358,1.541-3.185,3.108-3.782,3.754
	c-4.283,4.63-8.667,9.167-13.068,13.685c-6.747,6.927-13.54,13.812-20.374,20.651l0,0c-0.002,0.002-0.005,0.004-0.007,0.007
	c-0.482,0.481-3.215,0.832-2.619,0.235c0.002-0.003,0.004-0.005,0.006-0.008c0,0,0.001-0.001,0.002-0.001
	c6.365-6.371,12.697-12.777,18.985-19.226c4.517-4.631,9.031-9.271,13.435-14.008c0.808-0.87,4.147-3.68,5.515-5.688
	c-0.141-0.326,0.123-0.756,0.546-1.074c0.038-0.143,0.057-0.278,0.044-0.397c-0.081-0.748,2.84-1.308,2.897-0.776
	c0.03,0.277-0.066,0.605-0.236,0.96c6.976,1.243,14.399,5.001,20.796,0.175c5.056-3.815,8.71-9.008,12.797-13.772
	c0.041-0.047,0.09-0.09,0.141-0.13c-2.536-2.568-4.835-5.426-7.618-7.738c-1.693,1.894-3.4,3.773-5.145,5.619
	c-1.147,1.214-2.809,3.49-4.675,4.485c-0.008,0.124-0.035,0.247-0.075,0.353c-0.762,2.043-6.308,1.026-7.787,0.953
	c-2.174-0.107-4.348-0.235-6.516-0.429c-0.889-0.079-2.135-0.015-2.961-0.42c-0.401-0.197-0.581-0.451-0.611-0.713
	c-0.637,0.13-1.246,0.098-1.34-0.232c-1.632-5.696-3.65-11.635-3.954-17.604c-0.037-0.087-0.048-0.188-0.02-0.309
	c-0.006-0.141-0.023-0.28-0.027-0.421c-0.007-0.273,0.259-0.507,0.63-0.685c1.372-2.01,3.832-3.781,5.476-5.323
	c1.406-1.319,2.823-2.625,4.229-3.944c0.458-0.43,0.917-0.857,1.365-1.298c0.077-0.076,0.178-0.213,0.266-0.327
	c-0.006-0.172,0.155-0.378,0.574-0.609c0.026-0.016,0.056-0.027,0.083-0.041c0-0.01,0-0.02,0-0.029
	c-2.045-3.272-3.745-6.741-6.321-9.638c-6.578,4.681-14.871,9.769-18.419,17.265c-3.424,7.234-1.368,14.479,2.021,21.236
	c0.837-0.29,1.957-0.379,1.994-0.05c0.229,2.025-5.283,6.697-6.433,7.978c-2.053,2.285-4.131,4.547-6.211,6.807
	c-0.002,0.054-0.001,0.106-0.003,0.159c-0.02,0.542-0.542,0.929-1.139,1.093c-2.657,2.875-5.328,5.737-8.005,8.594
	c-3.145,3.354-6.323,6.681-9.501,10.006c-0.013,0.084-0.022,0.169-0.036,0.253c-0.062,0.396-0.52,0.713-1.056,0.89
	c-3.827,4.005-7.645,8.02-11.411,12.079c-0.889,7.265,13.641,10.171,19.569,6.958c-0.001-0.013-0.002-0.025-0.004-0.037
	c-0.076-0.596,0.828-1.063,1.646-1.187c0.844-0.498,3.178-0.646,2.472,0.113c-0.359,0.388-0.746,0.733-1.144,1.063
	c0.257,3.265-0.574,6.094-2.868,7.977c-0.697,2.854-1.361,5.702-2.635,8.369c-0.236,0.494-1.201,0.803-1.933,0.774
	c-0.036,0.614-0.136,1.207-0.282,1.783c4.923,5.301,10.665,11.358,17.694,13.624c9.892,3.187,17.742-3.646,23.662-10.896
	c10-12.247,13.409-27.809,21.419-41.188c-0.204-0.021-0.407-0.031-0.61-0.06c-0.333,0.177-0.677,0.343-1.033,0.495
	c-4.787,2.042-9.806,0.708-14.302-1.422c-0.372-0.176,1.945-1.371,2.727-1.001c4.905,2.324,10.505,3.54,14.306-1.376
	c2.285-2.956,3.689-6.37,4.9-9.875c0.261-0.757,3.068-1.095,2.861-0.496c-1.563,4.529-3.574,9.231-7.281,12.227
	C290.411,397.073,296.091,391.951,297.056,385.809z M442.696,259.095c5.713-5.463,11.426-10.926,17.139-16.389
	c10.951,11.452,21.9,22.903,32.852,34.355c-5.574,5.33-11.15,10.661-16.726,15.991c-0.976-0.073-2.499,0.637-2.214,1.104
	c3.412,5.611,6.197,11.502,8.32,17.718c0.305,0.89,3.178,0.045,2.897-0.776c-1.983-5.808-4.552-11.328-7.664-16.605
	c6.013-5.749,12.022-11.497,18.035-17.246c0.295-0.282,0.351-0.495,0.26-0.646c0.095-0.174,0.093-0.354-0.069-0.522
	c-11.461-11.986-22.922-23.971-34.383-35.957c-0.712-0.744-3.466,0.329-2.689,1.141c0.007,0.009,0.015,0.017,0.021,0.023
	c-6.035,5.771-12.072,11.544-18.107,17.315C439.139,259.777,442,259.761,442.696,259.095z M511.407,140.847
	c-0.662-0.468-3.137,0.696-2.731,0.984c2.528,1.792,4.86,3.813,6.992,6.063c0.506,0.534,3.173-0.518,2.731-0.983
	C516.267,144.661,513.935,142.64,511.407,140.847z M526.013,167.492c0.754,3.787,1.008,7.588,0.749,11.44
	c-0.067,0.991,2.824,0.373,2.878-0.436c0.268-3.971,0.049-7.876-0.729-11.782C528.748,165.899,525.836,166.603,526.013,167.492z
	 M487.797,216.197c-4.384,0.36-8.745,0.217-13.104-0.34c-0.816-0.104-3.397,1.248-1.809,1.45c4.824,0.617,9.626,0.726,14.473,0.327
	C488.71,217.523,489.817,216.031,487.797,216.197z M453.235,208.558c-3.227-2.042-6.098-4.492-8.582-7.396
	c-0.69-0.808-3.467,0.245-2.684,1.161c2.587,3.023,5.614,5.562,8.973,7.688C451.795,210.55,454.457,209.332,453.235,208.558z
	 M453.09,140.862c-4.624,2.735-8.744,6.104-12.108,10.308c-0.703,0.877,2.159,0.543,2.659-0.081
	c3.117-3.895,6.894-7.074,11.181-9.611C456.497,140.488,453.888,140.389,453.09,140.862z M472.628,135.131
	c3.423-0.673,6.87-1.145,10.339-1.479c0.024,0.001,0.05,0.004,0.071,0.005c1.418,0.033,2.828,0.125,4.238,0.274
	c0.694,0.074,1.494-0.109,2.049-0.549c0.447-0.353,0.361-0.821-0.236-0.885c-1.155-0.123-2.313-0.199-3.473-0.252
	c-0.109-0.207-0.441-0.337-1.088-0.281c-3.861,0.336-7.692,0.846-11.496,1.594C471.688,133.823,470.634,135.524,472.628,135.131z
	 M503.755,174.831c0.091,9.56-7.114,16.25-16.243,17.722c-11.989,1.935-26.228-3.109-25.517-17.486
	c0.604-12.173,12.141-16.733,22.715-17.814c0.523-0.053,0.709,0.003,0.697,0.113C494.86,158.051,503.657,164.615,503.755,174.831z
	 M500.045,170.852c-2.593-7.641-9.239-12.065-17.204-12.406c-0.02-0.001-0.031-0.004-0.049-0.005
	c-11.02,1.377-20.703,8.985-17.352,21.102c3.072,11.111,18.023,16.186,27.846,10.115
	C499.612,185.748,502.454,177.952,500.045,170.852z M541.245,162.863c0,8.042,0,16.084,0,24.126c0,0.506-0.797,0.914-1.557,1.013
	c-0.201,0.072-0.399,0.118-0.576,0.118c-3.793,0-7.584,0-11.377,0c-0.977,2.983-2.25,5.836-3.832,8.552
	c2.734,2.616,5.471,5.231,8.205,7.847c0.547,0.092,0.849,0.388,0.31,0.951c-5.558,5.813-11.116,11.624-16.673,17.438
	c-0.24,0.251-0.758,0.416-1.268,0.47c-0.556,0.134-1.125,0.126-1.412-0.143c-3.295-3.104-6.918-5.834-10.252-8.891
	c-2.318,0.902-4.679,1.654-7.092,2.246c0,3.795,0,7.59,0,11.385c0.336,0.184,0.151,0.552-0.242,0.886
	c-0.078,0.066-0.166,0.131-0.26,0.192c-0.395,0.266-0.884,0.471-1.268,0.471c-8.041,0-16.084,0-24.125,0
	c-0.566,0-0.797-0.143-0.82-0.341c-0.115-0.106-0.189-0.247-0.189-0.435c0-4.047,0-8.095,0-12.143
	c-2.746-0.565-5.449-1.291-8.111-2.173c-0.043,0.097-0.104,0.191-0.198,0.277c-3.067,2.796-6.253,5.461-9.267,8.317
	c-0.525,0.499-1.336,0.766-2.049,0.549c-0.107-0.032-0.197-0.083-0.278-0.143c-0.155-0.039-0.289-0.104-0.384-0.204
	c-5.559-5.813-11.116-11.625-16.674-17.437c-0.322-0.338-0.031-0.719,0.467-0.998c2.252-2.154,4.506-4.308,6.758-6.461
	c-1.877-3.057-3.325-6.306-4.381-9.73c-4.031,0-8.063,0-12.094,0c-0.566,0-0.797-0.141-0.82-0.338
	c-0.116-0.106-0.19-0.247-0.19-0.436c0-8.042,0-16.084,0-24.126c0-0.827,2.127-1.397,2.735-0.771c3.506,0,7.013,0,10.52,0
	c1.037-3.171,2.418-6.182,4.219-9.012c-2.324-2.224-4.649-4.448-6.977-6.671c-0.236-0.227-0.333-0.461-0.331-0.688
	c0-0.085,0.019-0.169,0.045-0.251c0.022-0.052,0.056-0.106,0.097-0.165c0.108-0.199,0.268-0.387,0.485-0.53
	c5.44-5.69,10.882-11.381,16.322-17.069c0.588-0.616,2.839-0.723,2.593,0.092c2.926,2.796,5.85,5.592,8.773,8.39
	c0.006,0.005,0.007,0.012,0.013,0.017c2.694-1.068,5.44-1.969,8.242-2.713c0-3.97,0-7.939,0-11.909c0-0.504,0.792-0.911,1.548-1.012
	c0.204-0.073,0.404-0.12,0.583-0.12c8.042,0,16.084,0,24.126,0c0.922,0,0.966,0.369,0.645,0.76c0,0.006,0.002,0.01,0.002,0.016
	c0,3.767,0,7.533,0,11.301c3.387,0.843,6.631,2.038,9.771,3.557c2.705-2.587,5.41-5.173,8.114-7.76
	c-0.223-0.772,2.15-1.624,2.805-0.94c5.559,5.813,11.116,11.625,16.674,17.438c0.135,0.14,0.157,0.288,0.109,0.433
	c0.025,0.144-0.055,0.326-0.295,0.557c-2.76,2.639-5.52,5.276-8.278,7.915c1.464,2.516,2.665,5.144,3.603,7.897
	c0.043-0.005,0.09-0.012,0.131-0.012c3.727,0,7.453,0,11.18,0C539.905,162.047,541.245,162.027,541.245,162.863z M538.345,164.115
	c-3.865,0-7.732,0-11.598,0c-0.11,0-0.203-0.007-0.289-0.018c-0.646,0.147-1.271,0.151-1.368-0.146
	c-0.937-2.92-2.183-5.689-3.703-8.343c-0.458-0.086-0.714-0.316-0.405-0.724c-0.006-0.008-0.01-0.017-0.015-0.024
	c-0.079-0.132,0.187-0.347,0.582-0.544c2.707-2.589,5.414-5.178,8.121-7.767c-5.077-5.31-10.154-10.619-15.231-15.928
	c-2.518,2.408-5.035,4.815-7.553,7.222c-0.081,0.077-0.191,0.145-0.32,0.203c-0.08,0.716-1.797,1.51-2.645,1.075
	c-3.176-1.629-6.499-2.846-9.941-3.73c-0.707,0.166-1.471,0.085-1.615-0.424c-0.774-0.238-0.572-0.809-0.028-1.265
	c0-3.583,0-7.165,0-10.748c-7.035,0-14.07,0-21.104,0c0,3.825,0,7.651,0,11.478c0,0.108-0.043,0.214-0.108,0.313
	c0.102,0.494-0.216,1.075-1.089,1.292c-3.328,0.83-6.582,1.859-9.75,3.178c-1.004,0.418-2.059-0.161-2.101-0.817
	c-0.327,0.006-0.62-0.06-0.797-0.229c-2.625-2.51-5.25-5.021-7.876-7.532c-4.902,5.127-9.804,10.254-14.706,15.381
	c2.334,2.23,4.667,4.463,7.001,6.694c0.678,0.648,0.221,1.374-0.484,1.744c-1.785,3.006-3.162,6.189-4.123,9.567
	c-0.202,0.713-2.787,1.1-2.86,0.577c-3.282,0-6.563,0-9.845,0c0,7.446,0,14.893,0,22.34c3.289,0,6.578,0,9.867,0
	c0.359-0.92,2.582-1.375,2.873-0.333c1.041,3.737,2.523,7.263,4.547,10.561c0.439,0.161,0.717,0.609,0.615,1.027
	c0.241,0.618-0.472,1.17-1.252,1.367c-1.996,1.909-3.992,3.818-5.99,5.728c5.021,5.25,10.041,10.5,15.062,15.75
	c2.603-2.388,5.291-4.678,7.901-7.058c0.355-0.325,0.824-0.54,1.308-0.597c0.546-0.438,1.821-0.877,2.339-0.694
	c3.268,1.15,6.594,2.047,9.998,2.692c0.823,0.156,0.537,0.579-0.045,0.932c0,3.847,0,7.693,0,11.541c7.035,0,14.07,0,21.105,0
	c0-3.626,0-7.252,0-10.878c-0.946-0.357-0.996-1.619,0.436-1.917c3.268-0.682,6.439-1.625,9.523-2.907
	c0.744-0.311,1.524-0.074,1.889,0.334c0.061,0.031,0.115,0.067,0.161,0.111c3.155,2.975,6.61,5.609,9.829,8.512
	c4.924-5.148,9.847-10.297,14.769-15.445c-2.596-2.482-5.192-4.966-7.79-7.449c-0.708,0.032-1.27-0.185-0.91-0.771
	c0.012-0.021,0.023-0.043,0.036-0.064c-0.016-0.015-0.032-0.029-0.047-0.045c-0.38-0.362,0.054-0.803,0.688-1.086
	c1.654-2.912,2.959-5.967,3.897-9.197c0.261-0.896,2.697-1.318,2.897-0.601c3.382,0,6.763,0,10.145,0
	C538.345,179.007,538.345,171.56,538.345,164.115z M333.667,149.894c0.506,0.534,3.173-0.518,2.73-0.983
	c-2.132-2.25-4.463-4.271-6.992-6.063c-0.66-0.468-3.137,0.696-2.73,0.984C329.204,145.625,331.536,147.644,333.667,149.894z
	 M344.762,180.932c-0.065,0.991,2.824,0.373,2.878-0.436c0.268-3.971,0.049-7.876-0.729-11.782c-0.163-0.815-3.074-0.11-2.897,0.776
	C344.768,173.279,345.021,177.079,344.762,180.932z M305.797,218.197c-4.384,0.36-8.745,0.217-13.105-0.34
	c-0.816-0.104-3.397,1.248-1.808,1.45c4.824,0.617,9.626,0.726,14.473,0.327C306.71,219.523,307.817,218.031,305.797,218.197z
	 M271.236,210.558c-3.227-2.042-6.098-4.492-8.582-7.396c-0.691-0.808-3.468,0.245-2.684,1.161c2.587,3.023,5.614,5.562,8.973,7.688
	C269.794,212.55,272.457,211.332,271.236,210.558z M272.823,143.477c1.675-0.99-0.935-1.088-1.732-0.615
	c-4.624,2.735-8.744,6.104-12.109,10.308c-0.702,0.877,2.16,0.543,2.66-0.081C264.759,149.195,268.534,146.014,272.823,143.477z
	 M290.628,137.131c3.423-0.673,6.87-1.145,10.339-1.479c0.024,0.001,0.05,0.004,0.071,0.005c1.418,0.033,2.828,0.125,4.238,0.274
	c0.694,0.074,1.494-0.109,2.049-0.549c0.447-0.353,0.361-0.821-0.236-0.885c-1.154-0.123-2.313-0.199-3.473-0.252
	c-0.109-0.207-0.441-0.337-1.088-0.281c-3.861,0.336-7.692,0.846-11.497,1.594C289.689,135.823,288.634,137.524,290.628,137.131z
	 M279.997,177.066c0.603-12.173,12.14-16.733,22.714-17.814c0.524-0.053,0.709,0.003,0.698,0.113
	c9.451,0.687,18.248,7.25,18.346,17.466c0.091,9.56-7.114,16.25-16.243,17.722C293.523,196.487,279.285,191.443,279.997,177.066z
	 M283.44,181.543c3.073,11.111,18.024,16.186,27.846,10.115c6.326-3.91,9.168-11.707,6.759-18.806
	c-2.593-7.641-9.239-12.065-17.204-12.406c-0.02-0.001-0.031-0.004-0.049-0.005C289.773,161.819,280.089,169.427,283.44,181.543z
	 M239.785,190.265c-0.116-0.106-0.19-0.246-0.19-0.436c0-8.042,0-16.084,0-24.126c0-0.827,2.127-1.397,2.735-0.771
	c3.506,0,7.013,0,10.52,0c1.037-3.171,2.418-6.182,4.219-9.012c-2.325-2.224-4.65-4.448-6.977-6.671
	c-0.236-0.226-0.333-0.461-0.331-0.688c0-0.085,0.018-0.169,0.045-0.251c0.023-0.053,0.055-0.107,0.096-0.165
	c0.109-0.2,0.268-0.388,0.486-0.531c5.44-5.69,10.881-11.38,16.322-17.069c0.588-0.616,2.839-0.723,2.593,0.092
	c2.925,2.797,5.849,5.593,8.773,8.39c0.006,0.005,0.007,0.012,0.013,0.017c2.694-1.067,5.441-1.969,8.242-2.713
	c0-3.97,0-7.938,0-11.909c0-0.504,0.792-0.911,1.548-1.012c0.204-0.073,0.405-0.12,0.583-0.12c8.042,0,16.084,0,24.126,0
	c0.923,0,0.966,0.37,0.646,0.76c0,0.005,0.002,0.011,0.002,0.017c0,3.766,0,7.532,0,11.3c3.385,0.843,6.631,2.038,9.77,3.557
	c2.705-2.587,5.41-5.173,8.115-7.76c-0.223-0.771,2.15-1.624,2.804-0.939c5.558,5.812,11.116,11.625,16.674,17.437
	c0.134,0.14,0.157,0.288,0.109,0.433c0.024,0.144-0.056,0.326-0.296,0.557c-2.758,2.639-5.519,5.276-8.277,7.915
	c1.464,2.516,2.665,5.144,3.602,7.897c0.045-0.005,0.09-0.012,0.133-0.012c3.726,0,7.453,0,11.179,0
	c0.858-0.401,2.198-0.422,2.198,0.413c0,8.042,0,16.084,0,24.126c0,0.505-0.797,0.914-1.557,1.013
	c-0.201,0.072-0.4,0.118-0.576,0.118c-3.793,0-7.584,0-11.377,0c-0.977,2.984-2.25,5.836-3.832,8.552
	c2.734,2.616,5.471,5.231,8.205,7.848c0.547,0.091,0.848,0.387,0.31,0.951c-5.558,5.812-11.116,11.624-16.673,17.437
	c-0.24,0.251-0.758,0.416-1.269,0.47c-0.555,0.134-1.125,0.126-1.411-0.143c-3.295-3.104-6.918-5.834-10.253-8.891
	c-2.317,0.902-4.678,1.654-7.091,2.246c0,3.795,0,7.591,0,11.386c0.337,0.183,0.15,0.551-0.243,0.885
	c-0.077,0.065-0.166,0.13-0.258,0.191c-0.394,0.267-0.884,0.472-1.269,0.472c-8.041,0-16.083,0-24.125,0
	c-0.567,0-0.797-0.143-0.821-0.34c-0.115-0.107-0.189-0.247-0.189-0.436c0-4.047,0-8.095,0-12.142
	c-2.747-0.566-5.45-1.291-8.112-2.173c-0.043,0.096-0.103,0.19-0.198,0.276c-3.067,2.796-6.253,5.461-9.267,8.317
	c-0.525,0.499-1.336,0.766-2.049,0.549c-0.107-0.032-0.197-0.083-0.278-0.142c-0.155-0.039-0.289-0.104-0.384-0.204
	c-5.558-5.813-11.116-11.625-16.673-17.438c-0.323-0.338-0.031-0.719,0.467-0.998c2.252-2.154,4.505-4.308,6.757-6.461
	c-1.876-3.056-3.325-6.305-4.381-9.729c-4.031,0-8.063,0-12.094,0C240.039,190.603,239.809,190.462,239.785,190.265z
	 M242.495,188.939c3.289,0,6.578,0,9.866,0c0.36-0.921,2.583-1.375,2.873-0.333c1.041,3.737,2.524,7.263,4.547,10.561
	c0.44,0.161,0.717,0.609,0.615,1.027c0.242,0.618-0.471,1.17-1.251,1.366c-1.997,1.91-3.993,3.819-5.99,5.729
	c5.02,5.25,10.041,10.5,15.061,15.75c2.602-2.388,5.291-4.678,7.901-7.058c0.356-0.325,0.824-0.54,1.308-0.597
	c0.546-0.438,1.821-0.877,2.339-0.694c3.268,1.15,6.593,2.047,9.998,2.692c0.823,0.156,0.537,0.579-0.045,0.932
	c0,3.847,0,7.693,0,11.541c7.035,0,14.069,0,21.104,0c0-3.626,0-7.252,0-10.878c-0.945-0.357-0.994-1.619,0.437-1.917
	c3.267-0.682,6.44-1.625,9.522-2.907c0.746-0.311,1.525-0.074,1.89,0.334c0.06,0.031,0.114,0.066,0.161,0.11
	c3.156,2.976,6.609,5.61,9.83,8.513c4.923-5.148,9.846-10.297,14.768-15.445c-2.596-2.483-5.193-4.966-7.79-7.449
	c-0.708,0.032-1.269-0.185-0.911-0.771c0.014-0.021,0.024-0.043,0.037-0.064c-0.016-0.015-0.031-0.029-0.047-0.045
	c-0.38-0.363,0.055-0.803,0.688-1.086c1.654-2.912,2.961-5.967,3.898-9.197c0.26-0.896,2.697-1.318,2.898-0.601
	c3.381,0,6.762,0,10.144,0c0-7.446,0-14.895,0-22.34c-3.866,0-7.731,0-11.598,0c-0.11,0-0.203-0.007-0.289-0.018
	c-0.647,0.147-1.272,0.151-1.368-0.146c-0.936-2.92-2.184-5.689-3.703-8.343c-0.458-0.086-0.714-0.316-0.406-0.724
	c-0.005-0.008-0.009-0.017-0.014-0.024c-0.079-0.132,0.186-0.347,0.582-0.544c2.707-2.589,5.414-5.178,8.121-7.767
	c-5.077-5.31-10.154-10.619-15.23-15.928c-2.519,2.408-5.035,4.815-7.554,7.222c-0.081,0.077-0.192,0.145-0.321,0.203
	c-0.078,0.716-1.795,1.51-2.644,1.075c-3.177-1.629-6.499-2.846-9.942-3.73c-0.705,0.166-1.47,0.085-1.615-0.424
	c-0.773-0.238-0.571-0.809-0.027-1.265c0-3.583,0-7.165,0-10.748c-7.035,0-14.07,0-21.105,0c0,3.825,0,7.651,0,11.478
	c0,0.108-0.042,0.214-0.108,0.313c0.102,0.494-0.216,1.075-1.088,1.292c-3.329,0.83-6.582,1.859-9.75,3.178
	c-1.004,0.418-2.059-0.161-2.1-0.817c-0.329,0.006-0.62-0.06-0.798-0.229c-2.625-2.51-5.25-5.021-7.876-7.532
	c-4.902,5.127-9.804,10.254-14.706,15.381c2.334,2.23,4.667,4.463,7.001,6.694c0.678,0.648,0.221,1.374-0.484,1.744
	c-1.786,3.006-3.163,6.189-4.123,9.567c-0.203,0.713-2.787,1.1-2.861,0.577c-3.282,0-6.563,0-9.844,0
	C242.495,174.045,242.495,181.492,242.495,188.939z" fill="#0984E3"></path>
</svg>